<?xml version="1.0" standalone="no"?>
<!DOCTYPE svg PUBLIC "-//W3C//DTD SVG 20010904//EN"
 "http://www.w3.org/TR/2001/REC-SVG-20010904/DTD/svg10.dtd">
<svg version="1.0" xmlns="http://www.w3.org/2000/svg"
 width="16.000000pt" height="16.000000pt" viewBox="0 0 16.000000 16.000000"
 preserveAspectRatio="xMidYMid meet">
<metadata>
Created by potrace 1.11, written by Peter Selinger 2001-2013
</metadata>
<g transform="translate(0.000000,16.000000) scale(0.003125,-0.003125)"
fill="#000000" stroke="none">
<path d="M0 3581 c0 -1063 3 -1542 10 -1546 8 -5 7 -11 -1 -21 -9 -11 -7 -14
9 -14 12 0 24 5 27 10 4 6 11 7 17 4 7 -4 5 -10 -5 -16 -9 -5 -15 -21 -15 -39
l1 -31 16 26 c9 14 19 26 24 26 4 0 6 4 3 9 -4 5 -2 21 4 36 9 22 13 24 31 15
23 -13 69 -5 69 11 0 7 -10 9 -25 5 -15 -4 -25 -2 -25 4 0 6 5 8 10 5 6 -3 10
3 10 14 0 14 6 21 20 21 25 0 26 17 3 23 -10 3 -2 5 17 6 20 0 41 6 48 13 15
15 16 38 2 38 -5 0 -10 -7 -10 -16 0 -8 -4 -12 -10 -9 -5 3 -10 15 -10 26 0
11 5 17 10 14 6 -3 10 -1 10 4 0 6 8 11 19 11 10 0 24 7 31 16 11 13 10 16 -9
21 -17 4 -21 11 -17 27 3 11 6 24 6 29 0 4 5 7 11 7 6 0 8 -9 4 -20 -4 -11 -2
-20 4 -20 6 0 11 14 11 31 0 25 -3 29 -18 25 -13 -4 -18 0 -19 14 -2 21 12 27
22 9 4 -6 19 -7 35 -4 19 4 30 2 33 -7 2 -7 2 -3 0 10 -5 32 5 46 23 31 11 -9
14 -8 14 4 0 14 55 16 502 17 276 0 504 2 506 5 2 2 -3 28 -12 58 -19 65 -20
97 -5 97 7 0 18 -8 25 -17 13 -17 15 -17 25 0 10 17 48 24 50 10 0 -5 1 -37 3
-73 2 -36 13 -105 25 -155 16 -62 20 -101 15 -125 -5 -19 -8 -39 -8 -45 -1 -5
-5 -13 -9 -16 -5 -3 -11 -44 -13 -90 -3 -46 -7 -94 -10 -106 l-4 -23 -587 0
c-364 0 -583 -4 -578 -9 6 -5 28 -11 50 -14 l40 -4 -42 -1 c-35 -2 -43 -6 -43
-21 0 -15 8 -21 38 -24 20 -2 3 -2 -39 0 l-76 5 -48 -46 -47 -46 -74 0 -74 0
0 -400 0 -400 1040 0 1040 0 0 80 0 80 1520 0 1520 0 0 400 0 400 -29 0 c-16
0 -32 6 -34 13 -4 9 -6 9 -6 0 -1 -8 -15 -13 -36 -13 -33 0 -34 1 -23 20 7 11
18 20 25 20 7 0 13 11 13 25 0 14 5 25 11 25 6 0 9 -7 6 -15 -4 -8 -2 -17 3
-20 6 -4 10 1 10 10 0 11 5 15 14 12 8 -3 17 1 20 9 9 24 8 26 -13 19 -22 -7
-30 10 -22 44 l6 24 20 -27 c11 -14 23 -26 26 -26 12 0 9 104 -4 112 -9 6 -9
8 0 8 19 0 19 2640 1 2640 -10 0 -10 2 -1 8 14 9 12 64 -2 74 -17 13 -25 9
-25 -11 0 -21 -17 -37 -27 -27 -3 3 -1 12 6 19 8 11 8 17 -2 25 -16 13 -70 8
-75 -7 -2 -6 -12 -11 -23 -11 -12 0 -16 -5 -13 -15 5 -12 12 -12 44 5 l38 19
6 -25 c8 -30 0 -45 -10 -20 -8 20 -31 21 -51 0 -14 -13 -14 -17 -2 -25 9 -6
-6 -9 -43 -9 -32 0 -58 4 -58 10 0 6 -5 10 -11 10 -5 0 -7 -4 -4 -10 4 -7
-261 -11 -787 -12 -436 -1 -810 -1 -830 0 l-38 2 0 -41 0 -42 -45 5 c-24 3
-42 2 -40 -2 6 -9 -25 -23 -33 -15 -3 3 1 5 8 5 19 0 1 16 -29 25 -20 6 -23 4
-17 -10 5 -14 2 -16 -11 -10 -10 4 -26 8 -35 9 -10 1 -21 5 -24 9 -4 4 -13 2
-21 -4 -9 -9 -13 -8 -13 0 0 6 -11 11 -23 11 -13 0 -32 9 -42 20 -10 11 -28
20 -41 20 -12 0 -24 3 -26 8 -8 18 -88 72 -106 72 -12 0 -32 4 -46 10 -19 7
-26 6 -26 -3 0 -8 -4 -7 -10 3 -8 13 -11 12 -24 -5 -8 -11 -18 -17 -22 -12 -4
4 -2 7 4 7 7 0 12 5 12 11 0 6 -7 9 -15 5 -8 -3 -15 -1 -15 5 0 8 25 9 80 4
l80 -7 0 41 0 41 959 0 c951 0 960 0 966 -20 3 -11 3 -30 0 -43 -5 -17 -4 -19
4 -7 10 13 12 13 21 0 9 -13 11 -13 20 0 9 13 11 13 21 0 8 -12 9 -10 4 8 -3
12 -3 31 0 42 6 18 15 20 114 20 59 0 111 -3 115 -7 10 -11 36 -12 36 -2 0 5
32 8 70 6 l70 -2 0 82 0 83 -2560 0 -2560 0 0 -1539z m849 1453 c34 -7 42 -24
11 -24 -11 0 -20 -4 -20 -10 0 -5 9 -10 20 -10 11 0 20 -4 20 -9 0 -10 -69
-25 -78 -17 -3 3 4 6 16 6 12 0 22 5 22 10 0 6 -9 10 -20 10 -11 0 -20 5 -20
10 0 6 9 10 20 10 27 0 25 18 -2 23 -13 2 -18 5 -12 6 6 0 26 -2 43 -5z m1774
-81 c-13 -2 -33 -2 -45 0 -13 2 -3 4 22 4 25 0 35 -2 23 -4z m2050 -5 c4 -10
8 -9 16 2 5 8 14 11 18 6 4 -5 2 -11 -4 -13 -7 -3 -13 -13 -13 -24 0 -10 -4
-19 -10 -19 -5 0 -10 9 -10 20 0 11 -4 20 -10 20 -5 0 -10 5 -10 10 0 14 17
12 23 -2z m-2050 -15 c-13 -2 -33 -2 -45 0 -13 2 -3 4 22 4 25 0 35 -2 23 -4z
m0 -30 c-13 -2 -33 -2 -45 0 -13 2 -3 4 22 4 25 0 35 -2 23 -4z m2388 -96
c-13 -13 -26 -3 -16 12 3 6 11 8 17 5 6 -4 6 -10 -1 -17z m-2371 9 c0 -3 -4
-8 -10 -11 -5 -3 -10 -1 -10 4 0 6 5 11 10 11 6 0 10 -2 10 -4z m-2490 -38 c0
-19 -2 -20 -10 -8 -13 19 -13 30 0 30 6 0 10 -10 10 -22z m130 15 c0 -5 11
-13 25 -20 22 -10 25 -9 25 8 0 10 5 19 11 19 7 0 9 -11 6 -30 -4 -16 -2 -32
3 -35 6 -4 10 9 10 29 l0 36 990 0 c545 0 990 -4 990 -8 0 -5 -35 -9 -77 -9
-104 -2 -116 -5 -128 -28 -6 -11 -21 -21 -33 -23 -12 -2 -22 -10 -22 -18 0
-10 -12 -14 -39 -14 -21 0 -44 -6 -50 -14 -6 -8 -32 -17 -56 -21 -25 -3 -45
-11 -45 -16 0 -6 -292 -8 -787 -7 l-788 3 -3 23 c-4 25 -12 28 -30 10 -6 -6
-15 -9 -19 -5 -4 4 -1 13 5 19 7 7 12 16 12 22 0 5 -3 6 -7 3 -3 -4 -12 5 -19
19 -11 20 -11 29 -1 45 12 19 27 26 27 12z m2108 -58 c-16 -16 -29 -22 -33
-15 -10 16 4 48 23 53 31 7 36 -12 10 -38z m952 41 c0 -11 -19 -15 -25 -6 -3
5 1 10 9 10 9 0 16 -2 16 -4z m-3295 -26 c3 -5 -1 -10 -9 -10 -9 0 -16 5 -16
10 0 6 4 10 9 10 6 0 13 -4 16 -10z m140 0 c-3 -5 -10 -10 -16 -10 -5 0 -9 5
-9 10 0 6 7 10 16 10 8 0 12 -4 9 -10z m2056 -23 c-10 -9 -11 -8 -5 6 3 10 9
15 12 12 3 -3 0 -11 -7 -18z m-81 -12 c0 -8 -4 -15 -10 -15 -5 0 -7 7 -4 15 4
8 8 15 10 15 2 0 4 -7 4 -15z m1200 3 c0 -5 -18 -8 -39 -8 -22 0 -46 -3 -55
-6 -9 -3 -16 -1 -16 4 0 6 10 12 23 14 40 6 87 3 87 -4z m-3234 -14 c8 3 14 1
14 -4 0 -6 -7 -10 -15 -10 -8 0 -15 -4 -15 -9 0 -5 -7 -12 -16 -15 -14 -5 -15
-4 -4 9 11 13 10 18 -6 31 -18 14 -18 14 4 4 13 -6 30 -9 38 -6z m2121 -2 c8
-5 3 -12 -17 -19 -33 -12 -33 -12 -24 11 7 17 22 20 41 8z m930 -44 c-2 -13
-4 -5 -4 17 -1 22 1 32 4 23 2 -10 2 -28 0 -40z m-97 22 c13 -11 20 -20 16
-20 -4 0 -19 9 -33 20 -14 11 -21 20 -16 20 6 0 20 -9 33 -20z m-2840 -20 c7
-14 7 -20 0 -20 -5 0 -10 5 -10 11 0 6 -7 9 -15 5 -9 -3 -15 0 -15 9 0 22 28
18 40 -5z m2980 10 c0 -5 -4 -10 -10 -10 -5 0 -10 5 -10 10 0 6 5 10 10 10 6
0 10 -4 10 -10z m48 -2 c9 -9 12 -9 12 0 0 7 16 12 41 12 54 0 47 -23 -8 -31
-38 -5 -73 7 -73 25 0 10 15 7 28 -6z m-3118 -10 c0 -9 4 -8 10 2 8 13 10 12
10 -4 0 -12 -5 -16 -16 -12 -9 3 -20 6 -25 6 -5 0 -9 5 -9 10 0 6 7 10 15 10
8 0 15 -6 15 -12z m2918 -1 c8 -10 6 -13 -7 -13 -10 0 -18 6 -18 13 0 7 4 13
7 13 4 0 12 -6 18 -13z m-238 -7 c0 -5 -4 -10 -10 -10 -5 0 -10 5 -10 10 0 6
5 10 10 10 6 0 10 -4 10 -10z m-322 -862 c-2 -43 0 -53 14 -56 15 -3 16 4 12
55 -4 43 -3 54 5 43 6 -8 11 -28 11 -45 0 -21 3 -26 9 -16 5 7 13 11 19 7 5
-3 15 1 22 8 6 8 19 15 28 15 9 0 64 0 122 1 108 0 128 -1 145 -12 6 -3 36
-12 69 -19 42 -10 65 -22 82 -42 25 -30 30 -47 15 -47 -6 0 -6 -12 -1 -29 10
-34 -1 -137 -14 -133 -13 5 -26 -19 -26 -51 0 -15 -6 -45 -12 -67 l-13 -40
-716 0 -717 0 -12 30 c-7 17 -16 30 -20 30 -4 0 -5 23 -2 50 l5 50 -36 0 c-39
0 -55 21 -32 44 8 8 15 19 15 25 0 6 5 11 10 11 6 0 10 6 10 14 0 22 16 28 75
32 30 1 74 10 100 18 35 12 89 16 225 16 l180 0 0 34 c0 42 10 50 36 31 10 -8
26 -15 35 -15 9 0 30 -7 47 -16 30 -15 58 -12 47 6 -3 4 2 10 10 13 14 6 11
-16 -6 -39 -6 -7 3 -11 28 -11 36 0 36 0 15 18 -20 16 -20 18 -5 30 15 12 16
12 10 -3 -7 -19 8 -25 16 -8 3 6 4 5 3 -2 -4 -19 22 -41 39 -34 8 3 15 13 15
23 0 10 7 26 14 36 13 17 14 14 11 -25 -3 -28 -2 -35 3 -18 4 14 13 25 20 26
35 3 42 5 56 20 9 9 16 32 16 55 0 21 5 39 11 39 7 0 10 -19 7 -52z m132 36
c0 -11 -8 -14 -32 -12 -46 4 -49 28 -4 28 26 0 36 -4 36 -16z m-286 -79 c-4
-8 -10 -15 -15 -15 -5 0 -9 7 -9 15 0 8 7 15 15 15 9 0 12 -6 9 -15z m1233
-127 c-2 -13 -4 -3 -4 22 0 25 2 35 4 23 2 -13 2 -33 0 -45z m-30 10 c-3 -8
-6 -5 -6 6 -1 11 2 17 5 13 3 -3 4 -12 1 -19z m1453 -628 c0 -5 -4 -10 -10
-10 -5 0 -10 5 -10 10 0 6 5 10 10 10 6 0 10 -4 10 -10z m-1647 -502 c-3 -35
-9 -67 -14 -73 -13 -14 -11 -25 6 -25 8 0 15 -8 15 -19 0 -27 -21 -81 -31 -81
-5 0 -9 -16 -9 -35 0 -19 -4 -35 -9 -35 -5 0 -12 -19 -16 -42 -4 -24 -21 -66
-37 -95 -19 -33 -29 -67 -30 -93 0 -32 -4 -40 -15 -35 -11 4 -14 0 -10 -14 6
-25 -30 -31 -189 -31 -114 0 -123 1 -138 23 l-17 22 5 -22 c3 -18 0 -23 -16
-23 -11 0 -22 8 -25 18 -2 10 -13 24 -25 31 -11 7 -17 8 -14 2 8 -12 -14 -27
-23 -15 -9 13 -91 65 -91 59 0 -3 -10 -1 -22 6 -18 10 -20 9 -15 -5 10 -27 -7
-18 -28 14 -11 17 -31 37 -45 45 -71 40 -68 39 -106 19 -19 -10 -44 -27 -54
-36 -26 -24 -29 -23 -28 12 1 17 -4 36 -10 42 -7 7 -12 26 -12 44 0 23 -8 39
-30 57 -47 40 -110 47 -110 13 0 -19 55 -76 73 -76 31 0 21 -47 -13 -62 -16
-7 -30 -16 -30 -20 0 -5 -7 -8 -16 -8 -17 0 -54 -36 -54 -52 0 -4 6 -8 13 -9
6 -1 1 -4 -13 -9 -24 -7 -24 -7 10 -18 l35 -10 -40 -1 c-118 -4 -156 -9 -179
-25 -36 -23 -274 -20 -286 4 -4 8 -16 32 -26 53 -11 21 -27 45 -36 54 -10 9
-18 24 -18 33 0 10 -7 23 -15 30 -8 7 -15 21 -15 32 0 11 -7 32 -14 46 -26 48
-45 96 -60 155 -11 46 -12 57 -1 57 10 0 8 16 -6 72 -11 39 -19 75 -19 80 0 4
418 8 929 8 l929 0 -5 -62z m187 42 c0 -11 -4 -20 -9 -20 -5 0 -7 -10 -3 -22
3 -13 1 -19 -5 -15 -6 4 -13 -10 -16 -36 -3 -23 -5 -42 -4 -43 2 -2 138 -7
153 -5 6 1 9 15 7 34 l-3 32 10 -29 c10 -31 3 -86 -11 -86 -5 0 -9 -5 -9 -11
0 -6 8 -8 19 -4 13 4 23 0 30 -12 10 -17 12 -17 41 -1 16 9 30 13 30 8 0 -17
18 -11 22 8 7 24 39 24 46 0 2 -10 13 -18 23 -18 17 0 17 -3 7 -20 -11 -16 -9
-22 7 -35 15 -11 17 -17 8 -23 -9 -6 -7 -11 7 -20 27 -17 35 2 16 40 -19 36
-20 48 -6 48 6 0 10 -9 10 -20 0 -22 10 -26 27 -9 9 9 19 9 42 -1 38 -15 30
-32 -12 -28 -29 3 -32 1 -28 -22 1 -14 6 -27 10 -30 4 -3 14 -20 23 -38 8 -18
19 -34 24 -34 5 0 14 -3 21 -5 7 -3 22 2 35 11 32 23 38 20 38 -19 0 -19 5
-35 11 -35 6 0 8 -7 5 -16 -4 -10 1 -22 11 -30 24 -18 33 -17 33 1 0 8 -4 15
-10 15 -5 0 -10 5 -10 10 0 21 18 9 30 -19 11 -27 14 -29 37 -18 19 9 26 8 33
-4 7 -10 3 -16 -13 -21 -16 -4 -17 -6 -4 -7 9 -1 17 -5 17 -11 0 -5 12 -10 26
-10 20 0 24 -4 19 -19 -4 -14 0 -21 12 -24 10 -2 -183 -5 -429 -6 l-447 -1 -7
22 c-4 13 -8 50 -9 83 -1 33 -7 74 -14 90 -18 41 -8 256 13 307 9 21 16 60 16
88 l0 50 65 0 c58 0 65 -2 65 -20z m82 -2 c6 -34 -2 -58 -18 -58 -10 0 -14 12
-14 40 0 44 25 58 32 18z m-3375 -120 c-2 -13 -4 -3 -4 22 0 25 2 35 4 23 2
-13 2 -33 0 -45z m43 22 c0 -22 -4 -40 -10 -40 -5 0 -10 18 -10 40 0 22 5 40
10 40 6 0 10 -18 10 -40z m22 -12 c2 -20 0 -34 -4 -32 -4 3 -8 24 -7 47 1 47
6 41 11 -15z m3235 -5 c-3 -10 -5 -4 -5 12 0 17 2 24 5 18 2 -7 2 -21 0 -30z
m-3297 -37 c0 -3 -4 -8 -10 -11 -5 -3 -10 -1 -10 4 0 6 5 11 10 11 6 0 10 -2
10 -4z m3485 -16 c3 -5 12 -7 20 -3 18 6 20 -8 3 -25 -26 -26 -64 -10 -52 22
7 18 20 21 29 6z m-3525 -25 c-7 -9 -15 -13 -18 -10 -3 2 1 11 8 20 7 9 15 13
18 10 3 -2 -1 -11 -8 -20z m3705 -15 c3 -5 1 -10 -4 -10 -6 0 -11 5 -11 10 0
6 2 10 4 10 3 0 8 -4 11 -10z m-3680 -9 c3 -5 1 -12 -5 -16 -5 -3 -10 1 -10 9
0 18 6 21 15 7z m-41 -36 c-10 -8 -23 -15 -28 -15 -6 0 -1 7 10 15 10 8 23 15
28 15 6 0 1 -7 -10 -15z m42 -18 c-1 -18 -7 -23 -31 -25 -28 -1 -28 0 -7 8 12
5 25 16 28 25 9 21 12 19 10 -8z m-96 -8 c0 -5 -4 -9 -10 -9 -5 0 -10 7 -10
16 0 8 5 12 10 9 6 -3 10 -10 10 -16z m3875 -74 c0 -11 5 -24 10 -28 6 -4 -1
-7 -15 -5 -14 2 -25 10 -25 18 0 8 -4 20 -8 26 -4 7 2 11 16 10 15 -1 22 -7
22 -21z m-3830 -15 c3 -5 1 -10 -4 -10 -6 0 -11 5 -11 10 0 6 2 10 4 10 3 0 8
-4 11 -10z m3935 -20 c0 -5 -2 -10 -4 -10 -3 0 -8 5 -11 10 -3 6 -1 10 4 10 6
0 11 -4 11 -10z m890 -30 c0 -5 -4 -10 -10 -10 -5 0 -10 5 -10 10 0 6 5 10 10
10 6 0 10 -4 10 -10z m-4873 -15 c8 -23 -5 -31 -20 -13 -6 9 -19 18 -27 21 -8
3 -2 6 13 6 16 1 30 -5 34 -14z m3988 5 c3 -5 1 -10 -4 -10 -6 0 -11 5 -11 10
0 6 2 10 4 10 3 0 8 -4 11 -10z m50 -10 c3 -5 -1 -10 -9 -10 -9 0 -16 5 -16
10 0 6 4 10 9 10 6 0 13 -4 16 -10z m-4138 -25 c8 -22 -6 -33 -17 -15 -13 20
-12 30 0 30 6 0 13 -7 17 -15z m53 5 c0 -5 -4 -10 -10 -10 -5 0 -10 5 -10 10
0 6 5 10 10 10 6 0 10 -4 10 -10z m-20 -50 c0 -5 -2 -10 -4 -10 -3 0 -8 5 -11
10 -3 6 -1 10 4 10 6 0 11 -4 11 -10z m2621 -52 c6 -11 8 -22 5 -25 -8 -9 -46
27 -46 43 0 19 28 6 41 -18z m2286 -10 c-3 -8 -6 -5 -6 6 -1 11 2 17 5 13 3
-3 4 -12 1 -19z m-642 2 c3 -5 2 -10 -4 -10 -5 0 -13 5 -16 10 -3 6 -2 10 4
10 5 0 13 -4 16 -10z m-1969 -47 c-14 -14 -23 4 -13 27 l10 25 5 -23 c2 -13 1
-26 -2 -29z m121 25 c-3 -8 -6 -5 -6 6 -1 11 2 17 5 13 3 -3 4 -12 1 -19z
m-47 -13 c11 -13 8 -15 -19 -15 -30 0 -39 9 -24 23 11 11 30 8 43 -8z m-257
-2 c-7 -2 -19 -2 -25 0 -7 3 -2 5 12 5 14 0 19 -2 13 -5z m2187 -3 c0 -5 -4
-10 -10 -10 -5 0 -10 5 -10 10 0 6 5 10 10 10 6 0 10 -4 10 -10z m-1553 -96
c-3 -3 -12 -4 -19 -1 -8 3 -5 6 6 6 11 1 17 -2 13 -5z m53 -24 c0 -5 -6 -10
-14 -10 -8 0 -18 5 -21 10 -3 6 3 10 14 10 12 0 21 -4 21 -10z m-50 -20 c0 -5
-7 -10 -15 -10 -8 0 -15 5 -15 10 0 6 7 10 15 10 8 0 15 -4 15 -10z m47 -26
c-3 -3 -12 -4 -19 -1 -8 3 -5 6 6 6 11 1 17 -2 13 -5z m-157 -14 c0 -13 -50
-13 -70 0 -11 7 -4 10 28 10 23 0 42 -4 42 -10z m-87 -77 c-7 -2 -19 -2 -25 0
-7 3 -2 5 12 5 14 0 19 -2 13 -5z m-58 -23 c3 -5 1 -10 -4 -10 -6 0 -11 5 -11
10 0 6 2 10 4 10 3 0 8 -4 11 -10z m65 -20 c0 -5 -4 -10 -9 -10 -6 0 -13 5
-16 10 -3 6 1 10 9 10 9 0 16 -4 16 -10z m-47 -27 c-7 -2 -19 -2 -25 0 -7 3
-2 5 12 5 14 0 19 -2 13 -5z"/>
<path d="M274 4758 c-4 -6 2 -18 13 -27 10 -9 24 -25 31 -36 10 -19 11 -19 9
4 -1 13 -9 26 -18 28 -11 3 -15 12 -12 24 6 21 -11 26 -23 7z"/>
<path d="M356 4711 c-3 -5 5 -11 19 -13 28 -6 34 6 9 16 -20 8 -22 8 -28 -3z"/>
<path d="M535 4690 c-3 -5 -1 -10 4 -10 6 0 11 5 11 10 0 6 -2 10 -4 10 -3 0
-8 -4 -11 -10z"/>
<path d="M448 4683 c-10 -2 -18 -9 -18 -15 0 -6 10 -8 23 -4 12 3 31 6 42 7
l20 0 -20 9 c-22 10 -23 10 -47 3z"/>
<path d="M360 4670 c0 -5 7 -10 15 -10 8 0 15 5 15 10 0 6 -7 10 -15 10 -8 0
-15 -4 -15 -10z"/>
<path d="M2545 3707 c-4 -10 -5 -21 -1 -24 10 -10 18 4 13 24 -4 17 -4 17 -12
0z"/>
<path d="M2480 3695 c0 -8 5 -15 10 -15 6 0 10 7 10 15 0 8 -4 15 -10 15 -5 0
-10 -7 -10 -15z"/>
<path d="M2546 2237 c-40 -32 -31 -60 14 -47 41 12 60 28 60 51 0 27 -38 24
-74 -4z"/>
<path d="M3600 2380 c0 -5 5 -10 10 -10 6 0 10 5 10 10 0 6 -4 10 -10 10 -5 0
-10 -4 -10 -10z"/>
<path d="M3820 2321 c0 -6 5 -13 10 -16 6 -3 10 1 10 9 0 9 -4 16 -10 16 -5 0
-10 -4 -10 -9z"/>
<path d="M3836 2227 c3 -10 9 -15 12 -12 3 3 0 11 -7 18 -10 9 -11 8 -5 -6z"/>
<path d="M3911 2184 c0 -11 3 -14 6 -6 3 7 2 16 -1 19 -3 4 -6 -2 -5 -13z"/>
<path d="M4056 2101 c-28 -30 -29 -31 -8 -31 17 0 22 -6 22 -25 0 -17 5 -25
18 -25 14 0 15 2 2 10 -8 5 -11 12 -8 16 4 4 3 15 -2 25 -7 12 -6 19 1 21 6 2
10 12 8 22 -3 15 -8 13 -33 -13z"/>
<path d="M4110 2010 c0 -5 7 -10 15 -10 8 0 15 5 15 10 0 6 -7 10 -15 10 -8 0
-15 -4 -15 -10z"/>
<path d="M5020 4940 c0 -5 5 -10 10 -10 6 0 10 5 10 10 0 6 -4 10 -10 10 -5 0
-10 -4 -10 -10z"/>
<path d="M4955 4899 c-4 -6 -13 -8 -21 -5 -8 3 -14 1 -14 -4 0 -6 11 -10 25
-10 16 0 25 6 25 15 0 18 -6 19 -15 4z"/>
<path d="M4872 4849 c6 -16 13 -28 15 -25 8 8 -6 56 -17 56 -5 0 -5 -13 2 -31z"/>
<path d="M4825 4850 c-3 -5 -1 -10 4 -10 6 0 11 5 11 10 0 6 -2 10 -4 10 -3 0
-8 -4 -11 -10z"/>
<path d="M401 2374 c0 -11 3 -14 6 -6 3 7 2 16 -1 19 -3 4 -6 -2 -5 -13z"/>
<path d="M410 2340 c0 -5 7 -10 15 -10 8 0 15 5 15 10 0 6 -7 10 -15 10 -8 0
-15 -4 -15 -10z"/>
<path d="M316 2296 c3 -9 11 -16 16 -16 13 0 5 23 -10 28 -7 2 -10 -2 -6 -12z"/>
<path d="M350 2280 c0 -5 5 -10 11 -10 5 0 7 5 4 10 -3 6 -8 10 -11 10 -2 0
-4 -4 -4 -10z"/>
<path d="M375 2220 c-3 -5 -1 -10 4 -10 6 0 11 5 11 10 0 6 -2 10 -4 10 -3 0
-8 -4 -11 -10z"/>
<path d="M286 2201 c-4 -5 3 -7 14 -4 23 6 26 13 6 13 -8 0 -17 -4 -20 -9z"/>
<path d="M0 1953 l0 -38 15 29 c19 36 19 46 0 46 -11 0 -15 -11 -15 -37z"/>
<path d="M106 1982 c-2 -4 -1 -14 5 -22 7 -12 9 -10 9 8 0 23 -5 28 -14 14z"/>
<path d="M160 1979 c0 -5 5 -7 10 -4 6 3 10 8 10 11 0 2 -4 4 -10 4 -5 0 -10
-5 -10 -11z"/>
<path d="M5080 1955 c0 -8 5 -15 10 -15 6 0 10 7 10 15 0 8 -4 15 -10 15 -5 0
-10 -7 -10 -15z"/>
<path d="M40 1911 c0 -6 5 -13 10 -16 6 -3 10 -2 10 4 0 5 10 12 23 14 16 3
13 5 -10 6 -18 0 -33 -3 -33 -8z"/>
<path d="M0 1894 c0 -8 5 -12 10 -9 6 3 10 10 10 16 0 5 -4 9 -10 9 -5 0 -10
-7 -10 -16z"/>
<path d="M0 1829 c0 -5 5 -7 10 -4 5 3 10 8 10 11 0 2 -4 4 -10 4 -5 0 -10 -5
-10 -11z"/>
<path d="M3840 400 l0 -80 -650 0 -650 0 -59 -44 c-33 -24 -80 -52 -105 -62
-54 -22 -58 -34 -13 -35 17 -1 43 -4 57 -8 16 -5 -15 -10 -90 -15 -123 -7
-156 -10 -180 -19 -33 -12 -175 -27 -253 -27 -45 0 -143 9 -217 20 -74 11
-173 20 -220 21 -66 0 -79 2 -61 10 14 5 31 7 38 5 10 -4 11 -1 5 10 -5 8 -44
28 -88 43 -44 16 -113 45 -153 65 l-72 36 -565 0 -564 0 0 -160 0 -160 2245 0
2245 0 0 75 0 75 315 0 315 0 0 165 0 165 -640 0 -640 0 0 -80z m740 66 c0 -3
-4 -8 -10 -11 -5 -3 -10 -1 -10 4 0 6 5 11 10 11 6 0 10 -2 10 -4z m-70 -56
c0 -5 -4 -10 -10 -10 -5 0 -10 5 -10 10 0 6 5 10 10 10 6 0 10 -4 10 -10z"/>
<path d="M1400 303 c46 -20 162 -102 156 -111 -2 -4 152 -7 342 -7 190 0 337
2 326 3 -10 2 -23 8 -29 13 -5 5 -17 9 -28 9 -17 0 -17 1 -3 16 9 8 16 20 16
25 0 5 9 9 20 9 14 0 20 6 18 18 -2 11 4 18 20 20 12 2 22 8 22 13 0 5 -178 9
-447 8 -410 -1 -445 -2 -413 -16z"/>
<path d="M1478 183 c7 -3 16 -2 19 1 4 3 -2 6 -13 5 -11 0 -14 -3 -6 -6z"/>
</g>
</svg>
